<svg xmlns="http://www.w3.org/2000/svg" width="512" height="512" viewBox="0 0 512 512">
  <!-- Background circle -->
  <circle cx="256" cy="256" r="256" fill="#FFF5F5"/>
  <!-- Chat bubble -->
  <path d="M384 192c0-70.7-57.3-128-128-128S128 121.3 128 192c0 35.2 14.3 67.2 37.4 90.3L148 336l58.8-29.4c14.6 6.7 30.8 10.7 47.2 10.7 2.1 0 4.1-.1 6.2-.2 14.6 4.4 30.4 6.9 46.8 6.9 63.6 0 115.7-46.2 125.4-106.7 3.8-6.5 6.6-13.7 8.6-21.3 2-7.5 3.1-15.4 3.1-23.6z" fill="#AA3BFF" opacity="0.15"/>
  <path d="M384 200c0 70.7-57.3 128-128 128-2.1 0-4.1 0-6.2-.1 1.2 0 2.4.1 3.6.1 16.5 0 32.3-2.5 46.8-6.9l58.8 29.4-13.4-53.7c23.1-23.1 37.4-55.1 37.4-90.3 0-6.4-.4-12.7-1.2-18.9 5.9 15.9 9.2 32.8 9.2 50.4z" fill="#AA3BFF" opacity="0.3"/>
  <!-- Mic icon -->
  <rect x="228" y="160" width="56" height="72" rx="28" fill="#AA3BFF"/>
  <rect x="208" y="228" width="96" height="8" rx="4" fill="#AA3BFF"/>
  <rect x="240" y="236" width="32" height="36" rx="6" fill="#AA3BFF"/>
  <!-- Sound waves -->
  <path d="M176 208q0-24 8-44" stroke="#AA3BFF" stroke-width="6" fill="none" stroke-linecap="round" opacity="0.6"/>
  <path d="M164 208q0-48 16-76" stroke="#AA3BFF" stroke-width="6" fill="none" stroke-linecap="round" opacity="0.4"/>
  <path d="M336 208q0-24-8-44" stroke="#AA3BFF" stroke-width="6" fill="none" stroke-linecap="round" opacity="0.6"/>
  <path d="M348 208q0-48-16-76" stroke="#AA3BFF" stroke-width="6" fill="none" stroke-linecap="round" opacity="0.4"/>
</svg>
